<?xml version="1.0" standalone="no"?>
<!DOCTYPE svg PUBLIC "-//W3C//DTD SVG 20010904//EN"
 "http://www.w3.org/TR/2001/REC-SVG-20010904/DTD/svg10.dtd">
<svg version="1.0" xmlns="http://www.w3.org/2000/svg"
 width="700.000000pt" height="700.000000pt" viewBox="0 0 700.000000 700.000000"
 preserveAspectRatio="xMidYMid meet">

<g transform="translate(0.000000,700.000000) scale(0.100000,-0.100000)"
fill="#000000" stroke="none">
<path d="M3403 6552 c-35 -8 -63 -19 -63 -23 0 -13 167 -21 189 -9 12 6 29 9
39 6 9 -3 69 -13 132 -21 63 -9 151 -22 194 -31 54 -10 83 -11 90 -4 14 14 26
12 26 -5 0 -9 25 -22 73 -36 82 -25 376 -134 547 -204 417 -169 628 -322 973
-707 97 -109 127 -152 127 -186 0 -13 4 -20 10 -17 28 17 8 66 -66 167 -125
169 -206 257 -352 386 -73 64 -273 212 -287 212 -4 0 -19 8 -33 19 -41 29
-204 111 -220 111 -7 0 -26 6 -40 14 -15 8 -65 26 -112 41 -47 15 -119 40
-160 57 -41 16 -97 39 -125 49 -27 11 -59 24 -70 28 -120 51 -187 74 -231 81
-30 5 -68 15 -86 24 -18 8 -46 17 -63 21 -16 4 -39 9 -50 11 -11 3 -75 8 -142
11 -68 3 -123 10 -123 14 0 14 -109 8 -177 -9z"/>
<path d="M4796 6268 c3 -4 14 -8 25 -8 10 0 19 -4 19 -8 0 -10 87 -72 100 -72
6 0 10 -4 10 -10 0 -5 5 -10 11 -10 14 0 288 -183 406 -272 140 -105 314 -302
381 -434 26 -49 31 -55 32 -32 1 99 -226 377 -430 526 -47 34 -96 71 -108 82
-13 11 -26 20 -30 20 -9 0 -86 54 -90 63 -2 4 -7 7 -12 7 -4 0 -48 24 -97 54
-127 76 -235 123 -217 94z"/>
<path d="M1549 5603 c-13 -16 -12 -17 4 -4 9 7 17 15 17 17 0 8 -8 3 -21 -13z"/>
<path d="M1504 5551 c-41 -39 -108 -130 -102 -137 5 -4 22 15 71 76 25 31 58
80 55 80 -3 0 -13 -8 -24 -19z"/>
<path d="M1361 5360 c-12 -22 -26 -40 -31 -40 -5 0 -11 -14 -15 -31 -5 -20
-12 -29 -20 -25 -9 3 -12 0 -8 -10 3 -8 -7 -30 -21 -48 -14 -19 -26 -37 -26
-41 0 -3 -9 -27 -21 -52 -30 -65 -18 -62 17 5 16 31 32 59 35 62 4 3 15 21 25
40 11 19 29 49 42 67 12 17 22 34 22 38 0 4 9 18 20 32 21 27 25 43 12 43 -5
0 -18 -18 -31 -40z"/>
<path d="M4170 5213 c-283 -42 -403 -79 -464 -141 -20 -19 -38 -43 -41 -53 -4
-11 -10 -19 -14 -19 -17 0 -32 -58 -26 -93 12 -62 31 -71 127 -59 124 15 344
59 420 84 59 19 74 21 130 11 54 -9 71 -7 123 10 76 24 111 42 118 61 10 25
-5 26 -38 1 -17 -14 -39 -25 -47 -25 -20 0 -32 30 -18 44 7 7 10 4 10 -9 0
-16 5 -14 29 13 18 19 39 32 55 32 24 0 24 1 10 30 -19 36 -67 77 -119 101
-31 14 -63 18 -135 17 -52 0 -106 -2 -120 -5z m143 -38 c1 -5 -16 -11 -37 -13
-36 -3 -38 -2 -26 13 14 17 59 17 63 0z m-105 -1 c31 -9 22 -27 -19 -37 -179
-46 -183 -57 -19 -55 103 2 121 5 125 19 11 34 51 50 113 45 31 -3 57 -5 58
-5 0 -1 -16 -20 -37 -43 -33 -35 -37 -43 -23 -52 9 -7 12 -18 8 -29 -5 -13
-18 -17 -63 -17 -32 0 -61 -3 -65 -7 -4 -5 -38 -8 -74 -9 -47 0 -81 -7 -114
-22 -26 -12 -53 -22 -61 -22 -8 0 -18 -7 -21 -16 -7 -18 -31 -16 -138 11 -18
5 -28 3 -28 -4 0 -6 -4 -11 -10 -11 -16 0 -12 32 7 52 9 10 22 18 30 18 7 0
13 9 13 20 0 17 -5 19 -32 13 -18 -3 -46 -15 -61 -26 -20 -14 -37 -17 -59 -13
-23 4 -34 1 -44 -11 -8 -11 -13 -13 -14 -6 0 17 32 53 47 53 7 0 13 8 13 18 0
12 20 25 68 45 37 15 76 27 88 27 11 0 24 4 30 8 9 9 99 36 169 51 50 11 83
12 113 5z m257 -74 c3 -5 -1 -10 -9 -10 -9 0 -16 5 -16 10 0 6 4 10 9 10 6 0
13 -4 16 -10z m-687 -157 c17 -37 15 -51 -7 -63 -31 -16 -58 -12 -88 14 -24
21 -26 26 -13 41 13 15 15 15 33 -7 10 -13 16 -17 12 -10 -3 6 -2 12 3 12 5 0
12 9 15 20 7 28 30 25 45 -7z m132 -33 c0 -5 -7 -10 -16 -10 -8 0 -12 5 -9 10
3 6 10 10 16 10 5 0 9 -4 9 -10z"/>
<path d="M3987 5083 c-15 -3 -35 -15 -44 -29 -18 -29 -18 -30 22 -38 36 -8 62
9 67 43 3 26 -3 30 -45 24z"/>
<path d="M4130 5019 c0 -5 5 -7 10 -4 6 3 10 8 10 11 0 2 -4 4 -10 4 -5 0 -10
-5 -10 -11z"/>
<path d="M3915 4950 c3 -5 8 -10 11 -10 2 0 4 5 4 10 0 6 -5 10 -11 10 -5 0
-7 -4 -4 -10z"/>
<path d="M3960 4930 c0 -5 5 -10 10 -10 6 0 10 5 10 10 0 6 -4 10 -10 10 -5 0
-10 -4 -10 -10z"/>
<path d="M1177 5043 c-4 -3 -7 -15 -7 -25 0 -10 -4 -18 -8 -18 -5 0 -14 -12
-21 -27 l-12 -28 21 25 c26 32 51 80 41 80 -4 0 -11 -3 -14 -7z"/>
<path d="M1061 4804 c0 -11 3 -14 6 -6 3 7 2 16 -1 19 -3 4 -6 -2 -5 -13z"/>
<path d="M1016 4723 c-6 -14 -5 -15 5 -6 7 7 10 15 7 18 -3 3 -9 -2 -12 -12z"/>
<path d="M1966 4665 c4 -15 2 -25 -5 -25 -6 0 -20 -9 -31 -20 -11 -11 -18 -20
-16 -20 2 0 12 -3 22 -7 11 -4 15 -3 11 4 -12 20 24 37 83 39 33 1 67 7 76 12
16 9 16 10 -2 20 -37 20 -95 26 -105 11 -6 -10 -9 -11 -9 -1 0 6 -7 12 -15 12
-11 0 -14 -7 -9 -25z"/>
<path d="M1921 4654 c0 -11 3 -14 6 -6 3 7 2 16 -1 19 -3 4 -6 -2 -5 -13z"/>
<path d="M991 4629 c-7 -16 -11 -35 -8 -41 2 -7 9 4 16 25 16 46 10 57 -8 16z"/>
<path d="M965 4620 c-4 -17 -5 -34 -2 -36 2 -3 7 10 11 27 8 42 0 50 -9 9z"/>
<path d="M2115 4619 c4 -6 10 -8 13 -5 3 3 13 -1 23 -10 10 -9 24 -14 31 -11
9 4 8 6 -3 6 -9 1 -19 8 -23 16 -3 8 -15 15 -26 15 -13 0 -18 -4 -15 -11z"/>
<path d="M1627 4574 c-4 -4 -7 -14 -7 -23 0 -11 3 -12 11 -4 6 6 10 16 7 23
-2 6 -7 8 -11 4z"/>
<path d="M1560 4534 c-23 -12 -23 -14 -4 -14 11 0 25 -5 31 -11 8 -8 13 -8 17
0 4 6 -1 11 -11 12 -10 0 -13 3 -5 6 13 5 17 24 5 22 -5 -1 -19 -7 -33 -15z"/>
<path d="M1715 4530 c-3 -5 1 -10 9 -10 9 0 16 5 16 10 0 6 -4 10 -9 10 -6 0
-13 -4 -16 -10z"/>
<path d="M2178 4525 c-3 -3 -16 -8 -29 -11 -13 -2 -42 -9 -64 -14 -22 -5 -53
-12 -70 -16 -16 -4 -35 -10 -41 -15 -6 -5 -30 -10 -55 -13 -24 -2 -57 -11 -74
-20 -16 -9 -42 -16 -56 -16 -15 0 -32 -7 -39 -15 -7 -8 -21 -15 -32 -15 -17 0
-18 -3 -8 -15 10 -13 9 -15 -9 -15 -12 0 -20 4 -16 9 9 15 -53 -6 -71 -23 -8
-9 -19 -16 -24 -16 -5 0 -15 -3 -24 -6 -24 -9 -20 25 6 47 11 11 25 19 30 19
5 0 7 3 5 8 -5 6 12 10 65 15 10 1 17 6 16 12 -2 15 14 48 31 65 13 13 12 15
-8 18 -13 2 -47 -11 -81 -32 -59 -36 -106 -46 -128 -24 -8 8 -15 8 -25 -1 -11
-9 -17 -8 -27 4 -18 22 -24 19 -43 -20 -24 -51 -22 -127 4 -151 31 -28 135
-24 224 8 39 14 84 30 100 36 51 18 318 101 350 108 61 14 135 55 135 75 0 18
-29 27 -42 14z m-718 -89 c0 -2 -7 -6 -15 -10 -8 -3 -15 -1 -15 4 0 6 7 10 15
10 8 0 15 -2 15 -4z m32 -22 c-5 -29 -28 -42 -44 -26 -7 7 -4 16 9 30 26 29
41 27 35 -4z m185 -70 c-3 -3 -12 -4 -19 -1 -8 3 -5 6 6 6 11 1 17 -2 13 -5z"/>
<path d="M3238 4372 c-25 -27 -61 -75 -78 -106 -18 -31 -36 -56 -40 -56 -4 0
-6 -9 -3 -20 3 -11 10 -20 15 -20 6 0 8 6 5 14 -5 13 56 76 73 76 4 0 15 16
24 35 9 19 30 49 45 66 l29 31 27 -25 c21 -19 26 -31 22 -50 -9 -32 -78 -107
-99 -107 -9 0 -20 -5 -24 -12 -5 -7 -3 -8 7 -3 12 8 12 6 0 -8 -9 -12 -17 -14
-26 -7 -6 5 -15 7 -19 3 -4 -4 -11 -1 -16 7 -7 12 -12 12 -22 2 -9 -9 -9 -12
5 -12 9 0 17 -5 17 -11 0 -19 -44 -59 -66 -59 -11 0 -25 -5 -32 -12 -9 -9 -15
-9 -24 0 -9 9 -8 12 7 12 15 0 16 3 7 12 -18 18 -14 38 7 38 24 0 32 12 21 29
-4 8 -15 11 -25 8 -9 -4 -88 -9 -176 -13 l-160 -5 -39 -39 c-22 -22 -40 -43
-40 -48 0 -11 -36 -22 -44 -14 -8 7 5 115 14 126 5 5 6 14 4 20 -2 6 6 11 20
11 13 0 22 -3 19 -7 -2 -5 5 -8 16 -8 26 0 27 12 3 33 -31 29 -70 21 -108 -20
-19 -20 -34 -44 -34 -52 -1 -9 -7 -27 -14 -40 -17 -32 -9 -65 25 -102 28 -30
32 -31 94 -27 61 4 67 6 96 41 36 44 73 48 133 16 55 -29 171 -24 236 10 104
54 260 183 280 232 25 58 -2 92 -85 106 -27 4 -37 -2 -77 -45z m138 4 c10 -11
11 -15 2 -18 -12 -4 -38 14 -38 26 0 11 21 6 36 -8z"/>
<path d="M2637 4125 c-4 -8 -2 -17 3 -20 6 -4 10 3 10 14 0 25 -6 27 -13 6z"/>
<path d="M605 2487 c-4 -9 -4 -21 0 -26 3 -6 12 -41 20 -78 36 -177 106 -319
233 -473 25 -30 47 -57 49 -59 2 -2 5 -2 7 0 3 2 -16 36 -40 74 -50 77 -152
282 -179 360 -10 28 -26 69 -36 92 -11 24 -19 49 -19 57 0 7 -7 26 -15 42 -11
23 -15 25 -20 11z"/>
<path d="M757 2426 c-16 -41 86 -299 175 -445 46 -74 108 -154 116 -147 5 6
-52 112 -73 136 -40 46 -161 320 -186 423 -11 47 -22 59 -32 33z"/>
<path d="M6060 1937 c-215 -337 -504 -620 -812 -793 -56 -32 -97 -59 -90 -62
28 -9 366 192 465 277 124 105 225 222 334 382 67 99 158 258 151 264 -2 2
-23 -29 -48 -68z"/>
<path d="M930 1825 c7 -9 15 -13 17 -11 7 7 -7 26 -19 26 -6 0 -6 -6 2 -15z"/>
<path d="M1012 1726 c18 -24 35 -40 36 -34 2 5 -8 20 -22 35 -14 14 -26 30
-26 34 0 5 -5 9 -10 9 -6 0 4 -20 22 -44z"/>
<path d="M1060 1673 c0 -9 5 -17 79 -111 75 -95 131 -142 231 -191 52 -26 104
-50 115 -54 29 -10 -48 57 -127 110 -59 40 -131 100 -260 220 -21 19 -38 31
-38 26z"/>
<path d="M2385 1107 c26 -17 380 -156 515 -202 95 -32 348 -90 570 -132 47 -8
126 -16 175 -17 82 -1 127 2 358 20 153 12 72 19 -226 19 -280 1 -309 2 -392
23 -131 33 -205 50 -250 57 -35 6 -207 69 -299 109 -158 70 -371 136 -441 136
-28 0 -28 -1 -10 -13z"/>
</g>
</svg>
